<?xml version="1.0" standalone="no"?>
<!DOCTYPE svg PUBLIC "-//W3C//DTD SVG 20010904//EN"
 "http://www.w3.org/TR/2001/REC-SVG-20010904/DTD/svg10.dtd">
<svg version="1.0" xmlns="http://www.w3.org/2000/svg"
 width="656.000000pt" height="656.000000pt" viewBox="0 0 656.000000 656.000000"
 preserveAspectRatio="xMidYMid meet">
<metadata>
Created by potrace 1.11, written by Peter Selinger 2001-2013
</metadata>
<g transform="translate(0.000000,656.000000) scale(0.100000,-0.100000)"
fill="#000000" stroke="none">
<path d="M506 6552 c-3 -5 -8 -36 -11 -68 -4 -33 -8 -70 -10 -84 -8 -59 -16
-128 -19 -165 -2 -22 -7 -72 -10 -110 -14 -135 -16 -161 -21 -240 -3 -44 -8
-107 -10 -140 -26 -370 -26 -1292 0 -1465 2 -19 7 -71 10 -115 8 -109 12 -152
19 -210 3 -27 10 -84 15 -125 5 -41 10 -82 10 -90 0 -8 7 -49 15 -90 8 -41 17
-91 20 -110 14 -86 35 -186 67 -325 11 -49 22 -98 24 -108 2 -10 9 -32 14 -50
6 -18 29 -90 51 -162 41 -131 67 -204 102 -282 10 -23 18 -44 18 -47 0 -8 103
-220 110 -226 3 -3 11 -16 17 -30 7 -14 26 -47 43 -75 16 -27 33 -57 37 -65 3
-8 9 -17 12 -20 3 -3 20 -25 36 -50 32 -47 189 -210 240 -247 17 -13 53 -40
80 -60 72 -55 275 -188 315 -206 8 -4 31 -17 50 -29 50 -30 150 -83 265 -140
55 -27 108 -54 117 -59 10 -5 26 -13 35 -18 10 -5 41 -19 68 -32 28 -12 82
-36 120 -54 39 -18 99 -45 135 -60 36 -15 88 -38 117 -51 43 -19 294 -120 448
-181 22 -8 49 -20 60 -25 12 -5 27 -10 35 -12 15 -3 43 -13 110 -41 19 -7 100
-37 180 -65 80 -28 154 -55 165 -59 11 -5 38 -14 60 -20 22 -7 49 -16 60 -21
38 -15 84 -32 87 -31 2 1 68 -21 148 -47 124 -42 314 -104 330 -107 3 -1 40
-12 82 -25 67 -21 79 -28 89 -54 12 -31 144 -166 161 -166 5 0 29 -13 52 -29
134 -92 462 -208 666 -235 25 -3 56 -9 70 -12 14 -3 97 -7 185 -9 218 -4 346
15 526 82 l66 24 -29 72 c-34 83 -33 81 -50 71 -7 -5 -19 -9 -26 -10 -8 -2
-21 -6 -30 -10 -9 -4 -19 -8 -22 -9 -3 -1 -12 -4 -20 -8 -29 -12 -104 -29
-182 -41 -75 -12 -323 -13 -398 -2 -19 3 -48 7 -65 10 -16 2 -41 7 -55 10 -14
3 -36 8 -50 10 -86 14 -274 78 -390 134 -158 76 -274 167 -266 209 2 10 7 43
11 73 4 30 9 62 10 71 3 17 15 106 20 149 5 37 14 110 21 155 4 22 8 51 9 65
9 80 17 148 21 171 6 40 22 185 29 264 4 38 15 149 20 195 3 19 7 60 9 90 3
30 8 87 12 125 3 39 8 90 10 115 1 25 6 83 9 130 15 213 24 370 29 525 1 45 5
86 9 91 3 6 4 14 0 18 -5 5 -8 130 -3 146 7 24 -4 461 -14 570 -3 25 -7 74
-10 110 -4 36 -9 76 -12 90 -3 14 -6 32 -6 40 -1 24 -35 190 -53 255 -25 91
-95 228 -187 366 -45 68 -85 126 -88 129 -5 4 -38 46 -82 105 -56 72 -362 384
-424 432 -16 12 -39 31 -51 42 -59 56 -334 261 -447 334 -10 7 -28 19 -40 28
-11 9 -37 24 -56 34 -19 10 -37 21 -40 24 -6 8 -244 147 -324 190 -33 17 -65
36 -72 42 -7 6 -19 12 -26 13 -7 1 -29 11 -48 21 -61 33 -205 106 -207 105 -2
0 -42 18 -90 41 -49 22 -158 70 -243 105 -85 35 -164 69 -175 74 -48 23 -498
185 -540 195 -5 1 -23 7 -38 13 -16 7 -31 12 -35 12 -3 0 -54 16 -113 35 -59
19 -115 36 -126 38 -10 2 -25 6 -33 9 -14 5 -53 17 -185 54 -27 7 -74 20 -103
28 -29 8 -54 15 -57 16 -3 0 -6 0 -7 1 -2 0 -10 2 -18 4 -8 2 -26 7 -40 10
-14 3 -34 8 -45 10 -11 2 -31 6 -45 10 -14 4 -43 11 -65 15 -22 4 -51 11 -65
14 -67 15 -79 17 -84 8z"/>
</g>
</svg>
