<svg id="Layer_1" data-name="Layer 1" xmlns="http://www.w3.org/2000/svg" viewBox="0 0 35.85 40.78"><defs><style>.cls-1{fill:#add8ac;}.cls-1,.cls-2{stroke:#070d0c;stroke-miterlimit:10;}.cls-2{fill:none;}.cls-3{fill:#070d0c;}</style></defs><title>mobilelogo</title><path class="cls-1" d="M146.2,37.38s-17.68-5.17-21.05-9.91c-6-8.49-3.36-26.88-3.36-26.88s18.82,3.7,24.78,14.47C149,19.53,146.2,37.38,146.2,37.38Z" transform="translate(-120.71 0)"/><path class="cls-2" d="M146.2,37.38c-0.32,1.19,5.83,4.24,10.15,2.23" transform="translate(-120.71 0)"/><path class="cls-3" d="M140,27.92c-0.14-.27-3.36-6.63-4.81-8.82-1.16-1.76-5.49-6.85-5.67-7.07a12.94,12.94,0,0,0,2.09,4.06l5.28,8A14.84,14.84,0,0,0,140,27.92Z" transform="translate(-120.71 0)"/></svg>