<svg id="Layer_1" data-name="Layer 1" xmlns="http://www.w3.org/2000/svg" viewBox="0 0 262.61 40.78"><defs><style>.cls-1{fill:#add8ac;}.cls-1,.cls-2{stroke:#070d0c;stroke-miterlimit:10;}.cls-2{fill:none;}.cls-3{fill:#070d0c;}.cls-4{fill:#2e9c95;}</style></defs><title>springgreenlogo</title><path class="cls-1" d="M146.2,37.38s-17.68-5.17-21.05-9.91c-6-8.49-3.36-26.88-3.36-26.88s18.82,3.7,24.78,14.47C149,19.53,146.2,37.38,146.2,37.38Z"/><path class="cls-2" d="M146.2,37.38c-0.32,1.19,5.83,4.24,10.15,2.23"/><path class="cls-3" d="M140,27.92c-0.14-.27-3.36-6.63-4.81-8.82-1.16-1.76-5.49-6.85-5.67-7.07a12.94,12.94,0,0,0,2.09,4.06l5.28,8A14.84,14.84,0,0,0,140,27.92Z"/><path class="cls-4" d="M1.63,23.68a6.77,6.77,0,0,0,.69,2.73A6.5,6.5,0,0,0,6.15,29.7a8.79,8.79,0,0,0,2.79.43,14.81,14.81,0,0,0,2.3-.19,8,8,0,0,0,2.28-.71,4.73,4.73,0,0,0,1.74-1.44A3.82,3.82,0,0,0,16,25.44a3.46,3.46,0,0,0-1.12-2.79A7.83,7.83,0,0,0,12,21.19a28.6,28.6,0,0,0-3.66-.84,19,19,0,0,1-3.65-1,7.44,7.44,0,0,1-2.82-1.83A4.85,4.85,0,0,1,.77,14.09a4.82,4.82,0,0,1,.73-2.73A5.43,5.43,0,0,1,3.38,9.62a8.49,8.49,0,0,1,2.56-.92,14.67,14.67,0,0,1,2.84-.28A12.93,12.93,0,0,1,12,8.8,7,7,0,0,1,14.6,10a5.94,5.94,0,0,1,1.72,2.19,7.58,7.58,0,0,1,.62,3.23H15.31a6.15,6.15,0,0,0-.49-2.58,4.51,4.51,0,0,0-1.38-1.74,6,6,0,0,0-2.09-1,10,10,0,0,0-2.58-.32A12.17,12.17,0,0,0,6.52,10a6.54,6.54,0,0,0-2,.73A4.59,4.59,0,0,0,3,12.11a3.33,3.33,0,0,0-.58,2,3.37,3.37,0,0,0,.65,2.15,4.61,4.61,0,0,0,1.7,1.31,11.67,11.67,0,0,0,2.37.8L9.76,19q1.63,0.3,3.07.71a8.68,8.68,0,0,1,2.49,1.12A5.08,5.08,0,0,1,17,22.61a6,6,0,0,1,.6,2.84,5,5,0,0,1-.82,3,6.31,6.31,0,0,1-2.06,1.87,8.76,8.76,0,0,1-2.77,1,16.56,16.56,0,0,1-3,.28,11.92,11.92,0,0,1-3.5-.49,7.93,7.93,0,0,1-2.82-1.5A7.15,7.15,0,0,1,.73,27.08,8.33,8.33,0,0,1,0,23.68H1.63Z"/><path class="cls-4" d="M23.52,14h0.13a8.45,8.45,0,0,1,.86-1.81,7.56,7.56,0,0,1,1.59-1.83,8.48,8.48,0,0,1,5.59-2,9.66,9.66,0,0,1,4.41.95,9,9,0,0,1,3.1,2.54A10.91,10.91,0,0,1,41,15.6a16,16,0,0,1,.6,4.43,16.84,16.84,0,0,1-.6,4.64,10.2,10.2,0,0,1-1.83,3.63,8.42,8.42,0,0,1-3.1,2.39,10.51,10.51,0,0,1-4.42.86,9.91,9.91,0,0,1-4.91-1.2,7,7,0,0,1-3.15-3.91H23.52V38.95H21.93v-30h1.59V14Zm8.15,16.13a8,8,0,0,0,3.73-.82A7.38,7.38,0,0,0,38,27.12a9.57,9.57,0,0,0,1.51-3.2,15.16,15.16,0,0,0,0-7.61A10.26,10.26,0,0,0,38.05,13a7.54,7.54,0,0,0-2.57-2.32,7.71,7.71,0,0,0-3.81-.88,7.64,7.64,0,0,0-3.75.86A7.28,7.28,0,0,0,25.4,13,9.59,9.59,0,0,0,24,16.22,16.52,16.52,0,0,0,23.56,20,18.27,18.27,0,0,0,24,23.83a9.24,9.24,0,0,0,1.31,3.23,6.74,6.74,0,0,0,2.5,2.24A8.23,8.23,0,0,0,31.67,30.13Z"/><path class="cls-4" d="M47.09,13.83h0.13a5.38,5.38,0,0,1,1.1-2,7.71,7.71,0,0,1,1.94-1.63,9.57,9.57,0,0,1,2.54-1.05,10.28,10.28,0,0,1,2.9-.32v1.63a7.75,7.75,0,0,0-2.95.26,7.16,7.16,0,0,0-3.16,1.89,15.22,15.22,0,0,0-1.05,1.25,6,6,0,0,0-.75,1.33,8.42,8.42,0,0,0-.47,1.63A14.18,14.18,0,0,0,47.09,19V31H45.45V8.93h1.63v4.9Z"/><path class="cls-4" d="M57.79,4.76V0.33h1.63V4.76H57.79Zm0,26.27V8.93h1.63V31H57.79Z"/><path class="cls-4" d="M64.63,8.93h1.63v4.73h0.09a7.09,7.09,0,0,1,1.23-2.21,8.14,8.14,0,0,1,4.15-2.69,9.51,9.51,0,0,1,2.54-.34,10,10,0,0,1,3.29.47,6.46,6.46,0,0,1,2.21,1.25,6,6,0,0,1,1.35,1.74,8.11,8.11,0,0,1,.71,2,11.58,11.58,0,0,1,.26,1.91q0,0.93,0,1.61V31H80.5v-14q0-.82-0.13-2.06a6.28,6.28,0,0,0-.75-2.39,5.47,5.47,0,0,0-1.89-2,6.44,6.44,0,0,0-3.5-.82,7.79,7.79,0,0,0-3.35.69,7.27,7.27,0,0,0-2.49,1.91,8.43,8.43,0,0,0-1.57,2.92,12.26,12.26,0,0,0-.54,3.72V31H64.63V8.93Z"/><path class="cls-4" d="M105.18,8.93V29.87a15,15,0,0,1-.43,3.59,8,8,0,0,1-1.48,3.07,7.26,7.26,0,0,1-2.9,2.13,11.87,11.87,0,0,1-4.68.8,14.34,14.34,0,0,1-3.3-.37,8,8,0,0,1-2.7-1.16,5.91,5.91,0,0,1-1.87-2.11A7.49,7.49,0,0,1,87,32.58h1.63a5.93,5.93,0,0,0,.73,2.49A5.24,5.24,0,0,0,91,36.77a6.62,6.62,0,0,0,2.17,1,10.61,10.61,0,0,0,2.58.3,9.28,9.28,0,0,0,3.81-.69A6.59,6.59,0,0,0,102,35.57a6.44,6.44,0,0,0,1.27-2.49,11.11,11.11,0,0,0,.37-2.82V25.19h-0.12a8.8,8.8,0,0,1-3.15,3.74,8.7,8.7,0,0,1-4.83,1.29,9.84,9.84,0,0,1-4.23-.84,8.16,8.16,0,0,1-3-2.32,10,10,0,0,1-1.76-3.46A15.24,15.24,0,0,1,86,19.3a13.78,13.78,0,0,1,.62-4.17,10.38,10.38,0,0,1,1.83-3.46,8.82,8.82,0,0,1,3-2.37,9.69,9.69,0,0,1,8.94.45,7.4,7.4,0,0,1,3.16,3.78h0.09V8.93h1.59Zm-9.68.9a7.16,7.16,0,0,0-3.5.82,7.39,7.39,0,0,0-2.45,2.15,9.75,9.75,0,0,0-1.46,3,12.31,12.31,0,0,0-.49,3.46A13.38,13.38,0,0,0,88.09,23a8.7,8.7,0,0,0,1.5,3,7.34,7.34,0,0,0,2.49,2,7.45,7.45,0,0,0,3.42.75A7.61,7.61,0,0,0,99,28a7.31,7.31,0,0,0,2.52-2.11,9.26,9.26,0,0,0,1.5-3,13.2,13.2,0,0,0,0-7.16,9,9,0,0,0-1.5-3A7.43,7.43,0,0,0,99,10.61,7.61,7.61,0,0,0,95.51,9.83Z"/><path class="cls-4" d="M184.17,8.93V29.87a15,15,0,0,1-.43,3.59,8,8,0,0,1-1.48,3.07,7.26,7.26,0,0,1-2.9,2.13,11.87,11.87,0,0,1-4.68.8,14.34,14.34,0,0,1-3.3-.37,8,8,0,0,1-2.7-1.16,5.91,5.91,0,0,1-1.87-2.11,7.49,7.49,0,0,1-.79-3.25h1.63a5.93,5.93,0,0,0,.73,2.49,5.24,5.24,0,0,0,1.57,1.7,6.62,6.62,0,0,0,2.17,1,10.61,10.61,0,0,0,2.58.3,9.28,9.28,0,0,0,3.81-.69,6.59,6.59,0,0,0,2.43-1.78,6.44,6.44,0,0,0,1.27-2.49,11.11,11.11,0,0,0,.37-2.82V25.19h-0.12a8.8,8.8,0,0,1-3.15,3.74,8.7,8.7,0,0,1-4.83,1.29,9.84,9.84,0,0,1-4.23-.84,8.16,8.16,0,0,1-3-2.32,10,10,0,0,1-1.76-3.46,15.24,15.24,0,0,1-.58-4.3,13.78,13.78,0,0,1,.62-4.17,10.38,10.38,0,0,1,1.83-3.46,8.82,8.82,0,0,1,3-2.37,9.69,9.69,0,0,1,8.94.45,7.4,7.4,0,0,1,3.16,3.78h0.09V8.93h1.59Zm-9.68.9a7.16,7.16,0,0,0-3.5.82,7.39,7.39,0,0,0-2.45,2.15,9.75,9.75,0,0,0-1.46,3,12.31,12.31,0,0,0-.49,3.46,13.38,13.38,0,0,0,.49,3.68,8.7,8.7,0,0,0,1.5,3,7.34,7.34,0,0,0,2.49,2,7.45,7.45,0,0,0,3.42.75A7.61,7.61,0,0,0,178,28a7.31,7.31,0,0,0,2.52-2.11,9.26,9.26,0,0,0,1.5-3,13.2,13.2,0,0,0,0-7.16,9,9,0,0,0-1.5-3A7.43,7.43,0,0,0,178,10.61,7.61,7.61,0,0,0,174.5,9.84Z"/><path class="cls-4" d="M190.67,13.83h0.13a5.38,5.38,0,0,1,1.1-2,7.71,7.71,0,0,1,1.94-1.63,9.57,9.57,0,0,1,2.54-1.05,10.28,10.28,0,0,1,2.9-.32v1.63a7.75,7.75,0,0,0-2.95.26,7.16,7.16,0,0,0-3.16,1.89,15.22,15.22,0,0,0-1.05,1.25,6,6,0,0,0-.75,1.33,8.42,8.42,0,0,0-.47,1.63,14.18,14.18,0,0,0-.22,2.15V31H189V8.93h1.63v4.9Z"/><path class="cls-4" d="M201.07,20.2v0.26a13.05,13.05,0,0,0,.52,3.7,9.45,9.45,0,0,0,1.53,3.1,7.25,7.25,0,0,0,2.54,2.11,7.78,7.78,0,0,0,3.56.77,7.59,7.59,0,0,0,5.26-1.74,9.12,9.12,0,0,0,2.67-4.84h1.63a9.89,9.89,0,0,1-3.16,5.93,9.59,9.59,0,0,1-6.43,2.06,9.75,9.75,0,0,1-4.28-.88,8.69,8.69,0,0,1-3.05-2.41A10.23,10.23,0,0,1,200,24.65a16.12,16.12,0,0,1-.6-4.49,15.74,15.74,0,0,1,.62-4.45A11.18,11.18,0,0,1,201.93,12a9.27,9.27,0,0,1,3.12-2.58,9.47,9.47,0,0,1,4.41-1,9.35,9.35,0,0,1,4.11.86,8.61,8.61,0,0,1,3,2.34,10.43,10.43,0,0,1,1.83,3.44,13.76,13.76,0,0,1,.62,4.19q0,0.22,0,.49c0,0.19,0,.34,0,0.45H201.07Zm16.25-1.42a13.21,13.21,0,0,0-.6-3.42,8.47,8.47,0,0,0-1.53-2.84,7.63,7.63,0,0,0-2.46-2,7.21,7.21,0,0,0-3.3-.73,7.74,7.74,0,0,0-3.49.75,7.89,7.89,0,0,0-2.54,2,8.81,8.81,0,0,0-1.6,2.86,13.39,13.39,0,0,0-.69,3.35h16.21Z"/><path class="cls-4" d="M223.39,20.2v0.26a13.05,13.05,0,0,0,.52,3.7,9.45,9.45,0,0,0,1.53,3.1A7.25,7.25,0,0,0,228,29.36a7.78,7.78,0,0,0,3.56.77,7.59,7.59,0,0,0,5.26-1.74,9.12,9.12,0,0,0,2.67-4.84h1.63a9.89,9.89,0,0,1-3.16,5.93,9.59,9.59,0,0,1-6.43,2.06,9.75,9.75,0,0,1-4.28-.88,8.69,8.69,0,0,1-3.05-2.41,10.23,10.23,0,0,1-1.83-3.61,16.12,16.12,0,0,1-.6-4.49,15.74,15.74,0,0,1,.62-4.45A11.18,11.18,0,0,1,224.25,12a9.27,9.27,0,0,1,3.12-2.58,9.47,9.47,0,0,1,4.41-1,9.35,9.35,0,0,1,4.11.86,8.61,8.61,0,0,1,3,2.34,10.43,10.43,0,0,1,1.83,3.44,13.76,13.76,0,0,1,.62,4.19q0,0.22,0,.49c0,0.19,0,.34,0,0.45H223.39Zm16.25-1.42a13.21,13.21,0,0,0-.6-3.42,8.47,8.47,0,0,0-1.53-2.84,7.63,7.63,0,0,0-2.46-2,7.21,7.21,0,0,0-3.3-.73,7.74,7.74,0,0,0-3.49.75,7.89,7.89,0,0,0-2.54,2,8.81,8.81,0,0,0-1.6,2.86,13.39,13.39,0,0,0-.69,3.35h16.21Z"/><path class="cls-4" d="M245.11,8.93h1.63v4.73h0.09a7.09,7.09,0,0,1,1.23-2.21,8.14,8.14,0,0,1,4.15-2.69,9.51,9.51,0,0,1,2.54-.34,10,10,0,0,1,3.29.47,6.46,6.46,0,0,1,2.21,1.25,6,6,0,0,1,1.35,1.74,8.11,8.11,0,0,1,.71,2,11.58,11.58,0,0,1,.26,1.91q0,0.93,0,1.61V31H261v-14q0-.82-0.13-2.06a6.28,6.28,0,0,0-.75-2.39,5.47,5.47,0,0,0-1.89-2,6.44,6.44,0,0,0-3.5-.82,7.79,7.79,0,0,0-3.35.69,7.27,7.27,0,0,0-2.49,1.91,8.43,8.43,0,0,0-1.57,2.92,12.26,12.26,0,0,0-.54,3.72V31h-1.63V8.93Z"/></svg>